<svg width="512" height="512" viewBox="0 0 512 512" fill="none" xmlns="http://www.w3.org/2000/svg">
<path d="M426.667 42.667H85.334C61.7697 42.667 42.667 61.7697 42.667 85.334V426.667C42.667 450.231 61.7697 469.334 85.334 469.334H426.667C450.231 469.334 469.334 450.231 469.334 426.667V85.334C469.334 61.7697 450.231 42.667 426.667 42.667Z" fill="#002755"/>
<path d="M30.17 243.503L134.248 347.582C139.031 352.365 144.708 356.158 150.957 358.747C157.206 361.335 163.903 362.667 170.667 362.667C184.326 362.667 197.426 357.241 207.085 347.582L426.667 128L440.507 141.84C443.799 145.132 447.826 147.595 452.257 149.025C456.688 150.456 461.395 150.813 465.99 150.067C470.586 149.321 474.939 147.494 478.69 144.736C482.441 141.978 485.483 138.368 487.565 134.204C489.605 130.124 490.667 125.625 490.667 121.064V64C490.667 52.684 486.172 41.8315 478.17 33.8299C470.168 25.8283 459.316 21.333 448 21.333H390.936C386.375 21.3331 381.876 22.3951 377.796 24.435C373.632 26.5172 370.022 29.5591 367.264 33.3101C364.506 37.0611 362.679 41.4138 361.933 46.0095C361.187 50.6052 361.544 55.3123 362.975 59.7429C364.405 64.1736 366.868 68.2009 370.16 71.493L384 85.333L170.667 298.667L72.837 200.837C70.0354 198.035 66.7095 195.813 63.0491 194.297C59.3887 192.781 55.4655 192 51.5035 192C47.5415 192 43.6183 192.781 39.9579 194.297C36.2975 195.813 32.9715 198.035 30.17 200.837C24.5123 206.495 21.3338 214.169 21.3338 222.17C21.3338 230.171 24.5123 237.845 30.17 243.503Z" fill="#5CBEFF"/>
<path d="M47.0846 217.752C48.4854 216.351 50.1483 215.24 51.9785 214.482C53.8087 213.724 55.7703 213.333 57.7513 213.333C59.7323 213.333 61.6939 213.724 63.5241 214.482C65.3543 215.24 67.0173 216.351 68.418 217.752L80.9147 230.248C82.3155 231.649 83.4266 233.312 84.1847 235.142C84.9428 236.972 85.333 238.934 85.333 240.915C85.333 242.896 84.9428 244.858 84.1847 246.688C83.4267 248.518 82.3155 250.181 80.9147 251.582C78.0857 254.411 74.2488 256 70.248 256C66.2472 256 62.4103 254.411 59.5813 251.582L47.0846 239.085C45.6838 237.684 44.5727 236.021 43.8146 234.191C43.0565 232.361 42.6663 230.399 42.6663 228.418C42.6663 226.437 43.0565 224.476 43.8146 222.646C44.5727 220.815 45.6838 219.152 47.0846 217.752Z" fill="#BCE4FF"/>
<path d="M379.582 111.085L239.085 251.582C233.194 257.473 233.194 267.024 239.085 272.915C244.976 278.806 254.527 278.806 260.418 272.915L400.915 132.419C406.806 126.527 406.806 116.976 400.915 111.085C395.024 105.194 385.473 105.194 379.582 111.085Z" fill="#BCE4FF"/>
<path d="M208.915 281.752L196.418 294.248C190.527 300.139 190.527 309.691 196.418 315.582C202.309 321.473 211.861 321.473 217.752 315.582L230.248 303.085C236.139 297.194 236.139 287.643 230.248 281.752C224.357 275.861 214.806 275.861 208.915 281.752Z" fill="#BCE4FF"/>
<path d="M106.666 405.334C106.666 381.77 87.5636 362.667 63.9995 362.667C40.4355 362.667 21.333 381.77 21.333 405.334V448C21.333 471.564 40.4355 490.667 63.9995 490.667C87.5636 490.667 106.666 471.564 106.666 448V405.334Z" fill="#C175FF"/>
<path d="M234.666 448C234.666 424.435 215.564 405.333 192 405.333C168.435 405.333 149.333 424.435 149.333 448C149.333 471.564 168.435 490.666 192 490.666C215.564 490.666 234.666 471.564 234.666 448Z" fill="#C175FF"/>
<path d="M362.666 384C362.666 360.436 343.564 341.333 320 341.333C296.435 341.333 277.333 360.436 277.333 384V447.999C277.333 471.563 296.435 490.666 320 490.666C343.564 490.666 362.666 471.563 362.666 447.999V384Z" fill="#C175FF"/>
<path d="M490.666 256C490.666 232.436 471.564 213.333 448 213.333C424.435 213.333 405.333 232.436 405.333 256V447.999C405.333 471.563 424.435 490.666 448 490.666C471.564 490.666 490.666 471.563 490.666 447.999V256Z" fill="#C175FF"/>
<path d="M448 42.667H405.333C393.551 42.667 384 52.2181 384 64V64.001C384 75.7829 393.551 85.334 405.333 85.334H448C459.782 85.334 469.333 75.7829 469.333 64.001V64C469.333 52.2181 459.782 42.667 448 42.667Z" fill="#BCE4FF"/>
<path d="M85.334 384H85.333C73.5511 384 64 393.551 64 405.333V448C64 459.782 73.5511 469.333 85.333 469.333H85.334C97.1159 469.333 106.667 459.782 106.667 448V405.333C106.667 393.551 97.1159 384 85.334 384Z" fill="#B244F1"/>
<path d="M341.334 362.667H341.333C329.551 362.667 320 372.218 320 384V448.001C320 459.783 329.551 469.334 341.333 469.334H341.334C353.116 469.334 362.667 459.783 362.667 448.001V384C362.667 372.218 353.116 362.667 341.334 362.667Z" fill="#B244F1"/>
<path d="M469.334 234.667H469.333C457.551 234.667 448 244.218 448 256V448.001C448 459.783 457.551 469.334 469.333 469.334H469.334C481.116 469.334 490.667 459.783 490.667 448.001V256C490.667 244.218 481.116 234.667 469.334 234.667Z" fill="#B244F1"/>
<path d="M213.333 469.333C225.115 469.333 234.666 459.782 234.666 448C234.666 436.218 225.115 426.667 213.333 426.667C201.551 426.667 192 436.218 192 448C192 459.782 201.551 469.333 213.333 469.333Z" fill="#B244F1"/>
<path d="M42.667 426.666C54.4489 426.666 64 417.115 64 405.333C64 393.551 54.4489 384 42.667 384C30.8851 384 21.334 393.551 21.334 405.333C21.334 417.115 30.8851 426.666 42.667 426.666Z" fill="#D7A5FF"/>
<path d="M298.667 405.333C310.449 405.333 320 395.782 320 384C320 372.218 310.449 362.667 298.667 362.667C286.885 362.667 277.334 372.218 277.334 384C277.334 395.782 286.885 405.333 298.667 405.333Z" fill="#D7A5FF"/>
<path d="M170.667 448C182.449 448 192 438.449 192 426.667C192 414.885 182.449 405.334 170.667 405.334C158.885 405.334 149.334 414.885 149.334 426.667C149.334 438.449 158.885 448 170.667 448Z" fill="#D7A5FF"/>
<path d="M426.667 277.333C438.449 277.333 448 267.782 448 256C448 244.218 438.449 234.667 426.667 234.667C414.885 234.667 405.334 244.218 405.334 256C405.334 267.782 414.885 277.333 426.667 277.333Z" fill="#D7A5FF"/>
<path d="M85.333 115.503V161.83C85.333 165.792 86.1134 169.715 87.6296 173.376C89.1457 177.036 91.3681 180.362 94.1696 183.163C96.9711 185.965 100.297 188.187 103.957 189.703C107.618 191.22 111.541 192 115.503 192C119.465 192 123.388 191.22 127.049 189.703C130.709 188.187 134.035 185.965 136.837 183.163L183.163 136.837C185.965 134.035 188.187 130.709 189.703 127.049C191.22 123.388 192 119.465 192 115.503C192 111.541 191.22 107.618 189.703 103.957C188.187 100.297 185.965 96.9711 183.163 94.1696C180.362 91.3681 177.036 89.1457 173.376 87.6296C169.715 86.1134 165.792 85.333 161.83 85.333H115.503C107.501 85.333 99.8276 88.5116 94.1696 94.1696C88.5116 99.8276 85.333 107.501 85.333 115.503Z" fill="#163969"/>
</svg>
