<svg width="60" height="60" viewBox="0 0 60 60" fill="none" xmlns="http://www.w3.org/2000/svg">
<path opacity="0.21" fill-rule="evenodd" clip-rule="evenodd" d="M0 30V37C0 49.7025 10.2975 60 23 60H30H37C49.7025 60 60 49.7025 60 37V30V23C60 10.2975 49.7025 0 37 0H30H23C10.2975 0 0 10.2975 0 23V30Z" fill="#FCB100"/>
<path fill-rule="evenodd" clip-rule="evenodd" d="M15 24.3164L27.9005 31.7645C28.0394 31.8447 28.1851 31.9026 28.3333 31.9394V46.3846L15.9201 39.0385C15.3498 38.701 15 38.0875 15 37.4248V24.3164ZM45 24.1184V37.4248C45 38.0875 44.6502 38.701 44.0799 39.0385L31.6667 46.3846V31.8129C31.6969 31.7978 31.7269 31.7816 31.7566 31.7645L45 24.1184Z" fill="#FCB100"/>
<path opacity="0.499209" fill-rule="evenodd" clip-rule="evenodd" d="M15.4052 20.7014C15.5628 20.5024 15.7617 20.3343 15.9936 20.2108L29.1186 13.2201C29.6695 12.9266 30.3304 12.9266 30.8814 13.2201L44.0064 20.2108C44.1852 20.306 44.3443 20.4277 44.48 20.5697L30.0899 28.8778C29.9953 28.9325 29.908 28.995 29.8285 29.064C29.749 28.995 29.6618 28.9325 29.5671 28.8778L15.4052 20.7014Z" fill="#FCB100"/>
</svg>
